<svg width="40" height="39" viewBox="0 0 40 39" fill="none" xmlns="http://www.w3.org/2000/svg">
<path d="M35.7143 0.6875H4.28571C1.91964 0.6875 0 2.49316 0 4.71875V34.2812C0 36.5068 1.91964 38.3125 4.28571 38.3125H35.7143C38.0804 38.3125 40 36.5068 40 34.2812V4.71875C40 2.49316 38.0804 0.6875 35.7143 0.6875ZM24.7589 32.9123C24.0089 33.0383 23.7321 32.6016 23.7321 32.2404C23.7321 31.7869 23.75 29.4689 23.75 27.5961C23.75 26.2859 23.2857 25.4545 22.7411 25.0178C26.0446 24.6734 29.5268 24.2451 29.5268 18.8785C29.5268 17.35 28.9464 16.5857 28 15.6031C28.1518 15.242 28.6607 13.7555 27.8482 11.8238C26.6071 11.4627 23.7679 13.3271 23.7679 13.3271C22.5893 13.0164 21.3125 12.8568 20.0536 12.8568C18.7946 12.8568 17.5179 13.0164 16.3393 13.3271C16.3393 13.3271 13.5 11.4627 12.2589 11.8238C11.4464 13.7471 11.9464 15.2336 12.1071 15.6031C11.1607 16.5857 10.7143 17.35 10.7143 18.8785C10.7143 24.2199 14.0446 24.6734 17.3482 25.0178C16.9196 25.3789 16.5357 26.0004 16.4018 26.8906C15.5536 27.2518 13.3839 27.8732 12.0893 25.7232C11.2768 24.3963 9.8125 24.2871 9.8125 24.2871C8.36607 24.2703 9.71429 25.1438 9.71429 25.1438C10.6786 25.5637 11.3571 27.1762 11.3571 27.1762C12.2232 29.6705 16.3661 28.8307 16.3661 28.8307C16.3661 29.998 16.3839 31.8961 16.3839 32.2404C16.3839 32.6016 16.1161 33.0383 15.3571 32.9123C9.46429 31.0563 5.33929 25.782 5.33929 19.6176C5.33929 11.9078 11.6071 6.0541 19.8036 6.0541C28 6.0541 34.6429 11.9078 34.6429 19.6176C34.6518 25.782 30.6518 31.0646 24.7589 32.9123ZM16 27.7809C15.8304 27.8145 15.6696 27.7473 15.6518 27.6381C15.6339 27.5121 15.75 27.4029 15.9196 27.3693C16.0893 27.3525 16.25 27.4197 16.2679 27.5289C16.2946 27.6381 16.1786 27.7473 16 27.7809ZM15.1518 27.7053C15.1518 27.8145 15.0179 27.9068 14.8393 27.9068C14.6429 27.9236 14.5089 27.8313 14.5089 27.7053C14.5089 27.5961 14.6429 27.5037 14.8214 27.5037C14.9911 27.4869 15.1518 27.5793 15.1518 27.7053ZM13.9286 27.6129C13.8929 27.7221 13.7143 27.7725 13.5625 27.7221C13.3929 27.6885 13.2768 27.5625 13.3125 27.4533C13.3482 27.3441 13.5268 27.2938 13.6786 27.3273C13.8571 27.3777 13.9732 27.5037 13.9286 27.6129ZM12.8304 27.1594C12.75 27.2518 12.5804 27.235 12.4464 27.109C12.3125 26.9998 12.2768 26.8402 12.3661 26.7646C12.4464 26.6723 12.6161 26.6891 12.75 26.815C12.8661 26.9242 12.9107 27.0922 12.8304 27.1594ZM12.0179 26.3951C11.9375 26.4455 11.7857 26.3951 11.6875 26.2691C11.5893 26.1432 11.5893 26.0004 11.6875 25.9416C11.7857 25.866 11.9375 25.9248 12.0179 26.0508C12.1161 26.1768 12.1161 26.3279 12.0179 26.3951V26.3951ZM11.4375 25.5805C11.3571 25.6561 11.2232 25.6141 11.125 25.5301C11.0268 25.4209 11.0089 25.2949 11.0893 25.2361C11.1696 25.1605 11.3036 25.2025 11.4018 25.2865C11.5 25.3957 11.5179 25.5217 11.4375 25.5805ZM10.8393 24.959C10.8036 25.0346 10.6875 25.0514 10.5893 24.9926C10.4732 24.9422 10.4196 24.8498 10.4554 24.7742C10.4911 24.7238 10.5893 24.6986 10.7054 24.7406C10.8214 24.7994 10.875 24.8918 10.8393 24.959Z" fill="#787878"/>
</svg>
