<svg width="40" height="38" viewBox="0 0 40 38" fill="none" xmlns="http://www.w3.org/2000/svg">
<path d="M20 14.6245C19.0581 14.6248 18.1375 14.8817 17.3546 15.3627C16.5716 15.8437 15.9615 16.5271 15.6013 17.3267C15.2411 18.1262 15.1471 19.006 15.331 19.8546C15.515 20.7033 15.9687 21.4828 16.6348 22.0946C17.3009 22.7063 18.1495 23.1229 19.0733 23.2916C19.9971 23.4603 20.9546 23.3735 21.8247 23.0423C22.6949 22.7111 23.4386 22.1503 23.9618 21.4308C24.485 20.7112 24.7643 19.8653 24.7643 19C24.7633 17.8395 24.261 16.7268 23.3677 15.9064C22.4744 15.086 21.2631 14.6249 20 14.6245V14.6245ZM31.1348 11.2612C30.8924 10.6967 30.5263 10.184 30.0592 9.75484C29.5921 9.32572 29.0341 8.98935 28.4196 8.7666C26.5446 8.08656 22.0804 8.23914 20 8.23914C17.9196 8.23914 13.4598 8.08082 11.5795 8.7666C10.965 8.98935 10.407 9.32572 9.93992 9.75484C9.47285 10.184 9.10674 10.6967 8.86429 11.2612C8.125 12.9838 8.29018 17.0895 8.29018 18.9992C8.29018 20.9089 8.125 25.0096 8.86786 26.738C9.11031 27.3025 9.47642 27.8152 9.94349 28.2443C10.4106 28.6735 10.9686 29.0098 11.583 29.2326C13.458 29.9126 17.9223 29.76 20.0036 29.76C22.0848 29.76 26.5429 29.9184 28.4232 29.2326C29.0376 29.0098 29.5957 28.6735 30.0628 28.2443C30.5298 27.8152 30.8959 27.3025 31.1384 26.738C31.8839 25.0154 31.7125 20.9097 31.7125 19C31.7125 17.0903 31.8839 12.9904 31.1384 11.262L31.1348 11.2612ZM20 25.7266C18.552 25.7266 17.1364 25.3321 15.9324 24.5929C14.7284 23.8538 13.79 22.8033 13.2359 21.5741C12.6817 20.345 12.5368 18.9925 12.8193 17.6877C13.1017 16.3829 13.799 15.1843 14.823 14.2436C15.8469 13.3029 17.1514 12.6622 18.5717 12.4027C19.9919 12.1431 21.464 12.2763 22.8018 12.7855C24.1396 13.2946 25.2831 14.1567 26.0875 15.2629C26.892 16.3691 27.3214 17.6696 27.3214 19C27.3226 19.8836 27.134 20.7588 26.7665 21.5754C26.399 22.392 25.8597 23.134 25.1797 23.7588C24.4996 24.3836 23.692 24.8791 22.8032 25.2167C21.9144 25.5544 20.9618 25.7276 20 25.7266V25.7266ZM27.6232 13.5613C27.2852 13.5615 26.9547 13.4695 26.6735 13.2971C26.3924 13.1247 26.1732 12.8795 26.0437 12.5927C25.9143 12.3058 25.8803 11.9901 25.9461 11.6854C26.012 11.3808 26.1746 11.101 26.4136 10.8813C26.6526 10.6617 26.9571 10.512 27.2886 10.4514C27.6201 10.3908 27.9638 10.4218 28.2761 10.5406C28.5884 10.6594 28.8554 10.8607 29.0432 11.1189C29.231 11.3771 29.3313 11.6807 29.3313 11.9912C29.3322 12.1975 29.2888 12.4019 29.2036 12.5927C29.1184 12.7835 28.993 12.9569 28.8346 13.1031C28.6763 13.2493 28.488 13.3653 28.2808 13.4445C28.0735 13.5237 27.8513 13.5645 27.6268 13.5646L27.6232 13.5613ZM35.7143 0.625H4.28571C3.14907 0.625 2.05898 1.03984 1.25526 1.77827C0.451529 2.51669 0 3.51821 0 4.5625L0 33.4375C0 34.4818 0.451529 35.4833 1.25526 36.2217C2.05898 36.9602 3.14907 37.375 4.28571 37.375H35.7143C36.8509 37.375 37.941 36.9602 38.7447 36.2217C39.5485 35.4833 40 34.4818 40 33.4375V4.5625C40 3.51821 39.5485 2.51669 38.7447 1.77827C37.941 1.03984 36.8509 0.625 35.7143 0.625V0.625ZM34.1857 24.4141C34.0705 26.5165 33.5482 28.3795 31.8777 29.9102C30.2071 31.4409 28.1813 31.9306 25.8955 32.0307C23.5375 32.1529 16.4679 32.1529 14.1098 32.0307C11.8214 31.9248 9.80089 31.4441 8.12768 29.9102C6.45446 28.3762 5.92857 26.5124 5.81964 24.4141C5.68661 22.2468 5.68661 15.7507 5.81964 13.5859C5.93482 11.4835 6.45089 9.62055 8.12768 8.08984C9.80446 6.55914 11.8304 6.07516 14.1098 5.97508C16.4679 5.85285 23.5375 5.85285 25.8955 5.97508C28.1839 6.0809 30.2107 6.5616 31.8777 8.09559C33.5446 9.62957 34.0768 11.4933 34.1857 13.5958C34.3188 15.7548 34.3188 22.2452 34.1857 24.4141Z" fill="#787878"/>
</svg>
