<svg width="40" height="36" viewBox="0 0 40 36" fill="none" xmlns="http://www.w3.org/2000/svg">
<path fill-rule="evenodd" clip-rule="evenodd" d="M0.75 3.49367C0.75 2.72184 1.08888 1.98163 1.69209 1.43587C2.2953 0.890106 3.11343 0.5835 3.9665 0.5835H36.03C36.4528 0.582875 36.8715 0.6577 37.2622 0.803689C37.653 0.949678 38.0081 1.16397 38.3072 1.43428C38.6063 1.7046 38.8435 2.02564 39.0053 2.37902C39.1671 2.73239 39.2502 3.11117 39.25 3.49367V32.5035C39.2505 32.8861 39.1675 33.265 39.006 33.6185C38.8444 33.9721 38.6074 34.2933 38.3085 34.5639C38.0096 34.8345 37.6547 35.0491 37.264 35.1955C36.8733 35.3418 36.4546 35.417 36.0317 35.4168H3.9665C3.54396 35.4168 3.12555 35.3415 2.73519 35.1952C2.34484 35.0488 1.99018 34.8343 1.69147 34.5639C1.39277 34.2935 1.15588 33.9725 0.99434 33.6192C0.832798 33.266 0.749771 32.8874 0.75 32.5051V3.49367ZM15.989 13.8645H21.2023V16.2332C21.9548 14.8715 23.8797 13.646 26.7725 13.646C32.3182 13.646 33.6325 16.3582 33.6325 21.3347V30.5528H28.0203V22.4683C28.0203 19.6342 27.2677 18.035 25.3567 18.035C22.7055 18.035 21.603 19.7592 21.603 22.4683V30.5528H15.989V13.8645ZM6.364 30.3359H11.978V13.646H6.364V30.3343V30.3359ZM12.7813 8.2025C12.7918 8.6374 12.7063 9.06983 12.5297 9.47441C12.353 9.879 12.0889 10.2476 11.7527 10.5586C11.4164 10.8695 11.015 11.1166 10.5718 11.2853C10.1286 11.4539 9.65267 11.5408 9.17188 11.5408C8.69108 11.5408 8.21513 11.4539 7.77195 11.2853C7.32878 11.1166 6.9273 10.8695 6.5911 10.5586C6.25489 10.2476 5.99071 9.879 5.81408 9.47441C5.63745 9.06983 5.55192 8.6374 5.5625 8.2025C5.58328 7.34885 5.97267 6.5365 6.6473 5.93942C7.32193 5.34234 8.22814 5.00799 9.17188 5.00799C10.1156 5.00799 11.0218 5.34234 11.6965 5.93942C12.3711 6.5365 12.7605 7.34885 12.7813 8.2025V8.2025Z" fill="#787878"/>
</svg>
